<svg width="214" height="48" viewBox="0 0 214 48" fill="none" xmlns="http://www.w3.org/2000/svg">
<rect x="0.5" y="0.5" width="49.8501" height="46.5022" rx="4.5" fill="white" stroke="white"/>
<rect x="7.4209" y="7.22266" width="35.7915" height="33.0546" rx="8" fill="#022B4B"/>
<path d="M9.82045 0.875H6.11035L8.07452 1.64117H11.8937H16.8042H22.8058H27.498H28.8074H32.7357H37.537H40.4833L44.3025 0.875H42.7748H37.537H30.9898H16.8042H9.82045Z" fill="#022B4B"/>
<path d="M49.6499 8.53778L49.6499 4.81641L48.8865 6.78655L48.8865 10.6174L48.8865 15.5427L48.8865 21.5626L48.8865 26.269L48.8865 27.5825L48.8865 31.5227L48.8865 36.3386L48.8865 39.2938L49.6499 43.1247L49.6499 41.5923L49.6499 36.3386L49.6499 29.7715L49.6499 15.5427L49.6499 8.53778Z" fill="#022B4B"/>
<path d="M42.12 46.5156L45.8301 46.5156L43.8659 45.7495L40.0467 45.7495L35.1363 45.7495L29.1346 45.7495L24.4425 45.7495L23.133 45.7495L19.2047 45.7495L14.4034 45.7495L11.4571 45.7495L7.63791 46.5156L9.1656 46.5156L14.4034 46.5156L20.9506 46.5156L35.1363 46.5156L42.12 46.5156Z" fill="#022B4B"/>
<path d="M1.09131 39.8411L1.09131 43.5625L1.85474 41.5924L1.85474 37.7615L1.85474 32.8362L1.85474 26.8163L1.85474 22.1099L1.85474 20.7964L1.85474 16.8562L1.85474 12.0403L1.85474 9.08507L1.09131 5.25424L1.09131 6.78657L1.09131 12.0403L1.09131 18.6074L1.09131 32.8362L1.09131 39.8411Z" fill="#022B4B"/>
<path d="M26.6483 9.19141C20.7262 12.8034 22.8492 23.6391 22.8492 23.6391H26.6483C26.6483 23.6391 24.4319 13.3743 29.5718 9.95757L26.6483 9.19141Z" fill="white"/>
<path d="M36.5386 14.5621C30.051 12.7603 24.9277 21.1795 24.9277 21.1795L27.6667 23.8202C27.6667 23.8202 32.1697 15.3615 37.9735 16.7448L36.5386 14.5621Z" fill="white"/>
<path d="M34.1796 34.9936C35.7928 28.4912 27.4433 23.9168 27.4433 23.9168L24.9241 26.7692C24.9241 26.7692 32.6464 30.9691 31.4268 36.7731L34.1796 34.9936Z" fill="white"/>
<path d="M39.2832 25.8499C36.1187 19.9098 26.6252 22.0393 26.6252 22.0393L26.6252 25.8499C26.6252 25.8499 35.5259 23.7362 38.5194 28.8918L39.2832 25.8499Z" fill="white"/>
<path d="M22.4557 37.8672C28.3778 34.5836 26.2548 24.7329 26.2548 24.7329L22.4557 24.7329C22.4557 24.7329 24.563 33.9949 19.423 37.101L22.4557 37.8672Z" fill="white"/>
<path d="M13.8698 32.5493C20.1359 34.558 24.5143 26.8434 24.5143 26.8434L21.7599 24.2188C21.7599 24.2188 17.9228 31.8989 12.3304 30.3181L13.8698 32.5493Z" fill="white"/>
<path d="M10.8059 22.1423C13.8656 28.0679 22.9502 25.8953 22.9502 25.8953L22.9322 22.0847C22.9322 22.0847 14.3494 24.5131 11.4573 19.3712L10.8059 22.1423Z" fill="white"/>
<path d="M15.0894 13.3433C13.752 20.028 22.7211 24.9673 22.7211 24.9673L25.2007 22.0802C25.2007 22.0802 16.4956 17.353 17.459 11.3808L15.0894 13.3433Z" fill="white"/>
<path d="M39.4376 23.7487C39.4376 31.6346 33.0646 38.0247 25.2064 38.0247C17.3481 38.0247 10.9751 31.6346 10.9751 23.7487C10.9751 15.8628 17.3481 9.47266 25.2064 9.47266C33.0646 9.47266 39.4376 15.8628 39.4376 23.7487Z" stroke="white"/>
<path d="M36.6003 23.5279C36.6003 29.8421 31.4975 34.9582 25.2061 34.9582C18.9148 34.9582 13.812 29.8421 13.812 23.5279C13.812 17.2137 18.9148 12.0977 25.2061 12.0977C31.4975 12.0977 36.6003 17.2137 36.6003 23.5279Z" stroke="white"/>
<path d="M32.6723 23.5291C32.6723 27.6671 29.3283 31.0191 25.2065 31.0191C21.0847 31.0191 17.7407 27.6671 17.7407 23.5291C17.7407 19.391 21.0847 16.0391 25.2065 16.0391C29.3283 16.0391 32.6723 19.391 32.6723 23.5291Z" stroke="white"/>
<ellipse cx="25.207" cy="23.7522" rx="3.16449" ry="3.17411" fill="#022B4B"/>
<rect x="5.51953" y="5.53516" width="39.3746" height="36.2137" rx="7.5" stroke="#002949"/>
<path d="M71.08 34V17.248C71.08 16.944 71.128 16.736 71.224 16.624C71.336 16.496 71.528 16.424 71.8 16.408C72.088 16.376 72.496 16.36 73.024 16.36V22.696C73.392 22.376 73.816 22.144 74.296 22C74.792 21.84 75.264 21.76 75.712 21.76C76.4 21.76 76.92 21.888 77.272 22.144C77.64 22.384 77.888 22.736 78.016 23.2C78.144 23.664 78.208 24.24 78.208 24.928V33.616C78.208 33.744 78.168 33.832 78.088 33.88C78.024 33.928 77.848 33.96 77.56 33.976C77.288 33.992 76.84 34 76.216 34V25.456C76.216 24.928 76.128 24.48 75.952 24.112C75.792 23.744 75.416 23.56 74.824 23.56C74.552 23.56 74.256 23.608 73.936 23.704C73.616 23.8 73.312 23.976 73.024 24.232V33.616C73.024 33.744 72.992 33.832 72.928 33.88C72.88 33.928 72.72 33.96 72.448 33.976C72.176 33.992 71.72 34 71.08 34ZM88.5676 34.24C87.9596 34.24 87.4156 34.16 86.9356 34C86.4716 33.856 86.0796 33.568 85.7596 33.136C85.4396 32.704 85.1996 32.08 85.0396 31.264C84.8796 30.432 84.7996 29.344 84.7996 28C84.7996 25.808 85.1516 24.224 85.8556 23.248C86.5596 22.256 87.5356 21.76 88.7836 21.76C89.6316 21.76 90.3276 21.936 90.8716 22.288C91.4316 22.64 91.8476 23.264 92.1196 24.16C92.3916 25.056 92.5276 26.312 92.5276 27.928C92.5276 30.168 92.1916 31.784 91.5196 32.776C90.8476 33.752 89.8636 34.24 88.5676 34.24ZM88.6156 32.584C88.9676 32.584 89.2716 32.464 89.5276 32.224C89.7996 31.968 90.0156 31.504 90.1756 30.832C90.3356 30.16 90.4156 29.2 90.4156 27.952C90.4156 26.672 90.3516 25.712 90.2236 25.072C90.0956 24.416 89.9116 23.976 89.6716 23.752C89.4316 23.528 89.1116 23.416 88.7116 23.416C88.3596 23.416 88.0476 23.544 87.7756 23.8C87.5036 24.04 87.2876 24.496 87.1276 25.168C86.9836 25.84 86.9116 26.8 86.9116 28.048C86.9116 29.024 86.9516 29.816 87.0316 30.424C87.1116 31.032 87.2156 31.496 87.3436 31.816C87.4876 32.12 87.6716 32.328 87.8956 32.44C88.1196 32.536 88.3596 32.584 88.6156 32.584ZM99.079 34V17.248C99.079 16.944 99.127 16.736 99.223 16.624C99.335 16.496 99.535 16.424 99.823 16.408C100.111 16.376 100.511 16.36 101.023 16.36V33.616C101.023 33.744 100.991 33.832 100.927 33.88C100.879 33.928 100.719 33.96 100.447 33.976C100.191 33.992 99.735 34 99.079 34ZM111.339 34.24C110.731 34.24 110.187 34.16 109.707 34C109.243 33.856 108.851 33.568 108.531 33.136C108.211 32.704 107.971 32.08 107.811 31.264C107.651 30.432 107.571 29.344 107.571 28C107.571 25.808 107.923 24.224 108.627 23.248C109.331 22.256 110.307 21.76 111.555 21.76C112.403 21.76 113.099 21.936 113.643 22.288C114.203 22.64 114.619 23.264 114.891 24.16C115.163 25.056 115.299 26.312 115.299 27.928C115.299 30.168 114.963 31.784 114.291 32.776C113.619 33.752 112.635 34.24 111.339 34.24ZM111.387 32.584C111.739 32.584 112.043 32.464 112.299 32.224C112.571 31.968 112.787 31.504 112.947 30.832C113.107 30.16 113.187 29.2 113.187 27.952C113.187 26.672 113.123 25.712 112.995 25.072C112.867 24.416 112.683 23.976 112.443 23.752C112.203 23.528 111.883 23.416 111.483 23.416C111.131 23.416 110.819 23.544 110.547 23.8C110.275 24.04 110.059 24.496 109.899 25.168C109.755 25.84 109.683 26.8 109.683 28.048C109.683 29.024 109.723 29.816 109.803 30.424C109.883 31.032 109.987 31.496 110.115 31.816C110.259 32.12 110.443 32.328 110.667 32.44C110.891 32.536 111.131 32.584 111.387 32.584ZM125.449 34.24C124.921 34.24 124.425 34.176 123.961 34.048C123.497 33.936 123.081 33.688 122.713 33.304C122.345 32.904 122.057 32.32 121.849 31.552C121.657 30.768 121.561 29.728 121.561 28.432C121.561 26.848 121.721 25.568 122.041 24.592C122.377 23.6 122.817 22.88 123.361 22.432C123.921 21.984 124.545 21.76 125.233 21.76C125.601 21.76 125.929 21.8 126.217 21.88C126.505 21.96 126.745 22.08 126.937 22.24V17.248C126.937 16.944 126.985 16.736 127.081 16.624C127.193 16.496 127.393 16.424 127.681 16.408C127.969 16.376 128.369 16.36 128.881 16.36V33.52C128.497 33.712 128.009 33.88 127.417 34.024C126.841 34.168 126.185 34.24 125.449 34.24ZM125.521 32.488C125.793 32.488 126.049 32.464 126.289 32.416C126.529 32.352 126.745 32.256 126.937 32.128V23.776C126.793 23.648 126.633 23.568 126.457 23.536C126.297 23.488 126.089 23.464 125.833 23.464C125.577 23.464 125.321 23.528 125.065 23.656C124.809 23.784 124.577 24.024 124.369 24.376C124.161 24.712 124.001 25.192 123.889 25.816C123.777 26.424 123.721 27.224 123.721 28.216C123.721 29.128 123.761 29.864 123.841 30.424C123.921 30.984 124.041 31.416 124.201 31.72C124.361 32.008 124.545 32.208 124.753 32.32C124.977 32.432 125.233 32.488 125.521 32.488ZM135.838 34V22.576C136.158 22.432 136.534 22.304 136.966 22.192C137.398 22.064 137.846 21.96 138.31 21.88C138.774 21.8 139.222 21.76 139.654 21.76C140.486 21.76 141.15 21.872 141.646 22.096C142.142 22.304 142.494 22.64 142.702 23.104C142.91 23.568 143.014 24.192 143.014 24.976V33.616C143.014 33.744 142.982 33.832 142.918 33.88C142.854 33.928 142.686 33.96 142.414 33.976C142.142 33.992 141.67 34 140.998 34V25.552C140.998 24.8 140.91 24.264 140.734 23.944C140.558 23.624 140.174 23.464 139.582 23.464C139.31 23.464 139.006 23.496 138.67 23.56C138.334 23.624 138.038 23.736 137.782 23.896V33.616C137.782 33.744 137.75 33.832 137.686 33.88C137.638 33.928 137.478 33.96 137.206 33.976C136.934 33.992 136.478 34 135.838 34ZM150.482 34V22.888C150.482 22.584 150.538 22.376 150.65 22.264C150.762 22.136 150.962 22.064 151.25 22.048C151.538 22.016 151.946 22 152.474 22V33.616C152.474 33.744 152.442 33.832 152.378 33.88C152.33 33.928 152.17 33.96 151.898 33.976C151.626 33.992 151.154 34 150.482 34ZM151.418 20.344C151.114 20.328 150.874 20.216 150.698 20.008C150.522 19.784 150.434 19.392 150.434 18.832C150.45 18.4 150.546 18.056 150.722 17.8C150.898 17.528 151.178 17.392 151.562 17.392C151.93 17.392 152.186 17.496 152.33 17.704C152.474 17.912 152.538 18.272 152.522 18.784C152.522 19.264 152.426 19.648 152.234 19.936C152.058 20.208 151.786 20.344 151.418 20.344ZM159.758 34V22.576C160.078 22.432 160.454 22.304 160.886 22.192C161.318 22.064 161.766 21.96 162.23 21.88C162.694 21.8 163.142 21.76 163.574 21.76C164.406 21.76 165.07 21.872 165.566 22.096C166.062 22.304 166.414 22.64 166.622 23.104C166.83 23.568 166.934 24.192 166.934 24.976V33.616C166.934 33.744 166.902 33.832 166.838 33.88C166.774 33.928 166.606 33.96 166.334 33.976C166.062 33.992 165.59 34 164.918 34V25.552C164.918 24.8 164.83 24.264 164.654 23.944C164.478 23.624 164.094 23.464 163.502 23.464C163.23 23.464 162.926 23.496 162.59 23.56C162.254 23.624 161.958 23.736 161.702 23.896V33.616C161.702 33.744 161.67 33.832 161.606 33.88C161.558 33.928 161.398 33.96 161.126 33.976C160.854 33.992 160.398 34 159.758 34ZM177.293 34.24C176.685 34.24 176.141 34.16 175.661 34C175.197 33.856 174.805 33.568 174.485 33.136C174.165 32.704 173.925 32.08 173.765 31.264C173.605 30.432 173.525 29.344 173.525 28C173.525 25.808 173.877 24.224 174.581 23.248C175.285 22.256 176.261 21.76 177.509 21.76C178.357 21.76 179.053 21.936 179.597 22.288C180.157 22.64 180.573 23.264 180.845 24.16C181.117 25.056 181.253 26.312 181.253 27.928C181.253 30.168 180.917 31.784 180.245 32.776C179.573 33.752 178.589 34.24 177.293 34.24ZM177.341 32.584C177.693 32.584 177.997 32.464 178.253 32.224C178.525 31.968 178.741 31.504 178.901 30.832C179.061 30.16 179.141 29.2 179.141 27.952C179.141 26.672 179.077 25.712 178.949 25.072C178.821 24.416 178.637 23.976 178.397 23.752C178.157 23.528 177.837 23.416 177.437 23.416C177.085 23.416 176.773 23.544 176.501 23.8C176.229 24.04 176.013 24.496 175.853 25.168C175.709 25.84 175.637 26.8 175.637 28.048C175.637 29.024 175.677 29.816 175.757 30.424C175.837 31.032 175.941 31.496 176.069 31.816C176.213 32.12 176.397 32.328 176.621 32.44C176.845 32.536 177.085 32.584 177.341 32.584Z" fill="white"/>
</svg>
